Coordinates
version=1
nRows=24
nColumns=24
inDegrees=yes

Units are S.I. units (second, meters, Newtons, ...)
Angles are in degrees.

endheader
time	pelvis_tilt	pelvis_list	pelvis_rotation	pelvis_tx	pelvis_ty	pelvis_tz	hip_flexion_r	hip_adduction_r	hip_rotation_r	knee_angle_r	ankle_angle_r	subtalar_angle_r	mtp_angle_r	hip_flexion_l	hip_adduction_l	hip_rotation_l	knee_angle_l	ankle_angle_l	subtalar_angle_l	mtp_angle_l	lumbar_extension	lumbar_bending	lumbar_rotation
      2.00000000	      5.15640510	      0.84518168	      3.65835098	      0.60570085	      1.01143669	      0.01194616	     19.81517750	     -1.73016735	     -4.22583065	    -24.82903612	      0.42168299	     -0.00000309	      0.00000000	    -12.80693717	      1.17669216	      4.56859712	    -41.44269188	      1.65554804	      0.00000903	      0.00000000	    -13.96298949	      1.62732167	     -8.75829758
      2.01700000	      5.03997048	      0.26179681	      3.49100484	      0.60647130	      1.01269162	      0.01515196	     19.05673891	     -0.85195468	     -4.32542495	    -25.50125572	      1.46489148	     -0.00000287	      0.00000000	     -9.15325210	      0.06257250	      2.87547674	    -48.07743230	     -2.96266159	      0.00000917	      0.00000000	    -13.78038750	      2.36081035	     -7.97936174
      2.03300000	      4.98744906	     -0.44688990	      3.63875479	      0.60751716	      1.01465225	      0.01840157	     17.86689618	      0.13672824	     -4.74475186	    -25.55457141	      2.58767988	     -0.00000268	      0.00000000	     -5.68020908	     -1.49080086	      1.50593648	    -53.81451718	     -7.05487353	      0.00000845	      0.00000000	    -13.49696514	      3.07606011	     -7.55030822
      2.05000000	      5.03858551	     -1.08717470	      3.45283923	      0.60748171	      1.01715617	      0.02186685	     16.43223663	      1.16659823	     -4.84120597	    -25.14415580	      3.54167473	     -0.00000247	      0.00000000	     -2.46864706	     -2.93276895	      0.19830423	    -58.74274682	     -9.43973396	      0.00000662	      0.00000000	    -13.54750559	      3.66982491	     -6.68793074
      2.06700000	      5.29823626	     -1.57826914	      3.40219216	      0.60734620	      1.02032956	      0.02521118	     14.68572026	      2.04288368	     -4.88867995	    -24.58384112	      4.47146648	     -0.00000257	      0.00000000	      0.41695708	     -4.14705856	     -0.57122652	    -62.98649051	     -9.71701340	      0.00000473	      0.00000000	    -13.76500085	      3.97072725	     -6.05524745
      2.08300000	      5.35671547	     -1.75587996	      3.11652934	      0.60670240	      1.02373639	      0.02801861	     12.99306707	      2.56488932	     -4.63120178	    -23.64762644	      5.16437797	     -0.00000234	      0.00000000	      3.28594931	     -4.79379666	     -1.26620777	    -66.32169889	     -8.25786735	      0.00000288	      0.00000000	    -13.92085250	      3.99211667	     -5.08442740
      2.10000000	      5.46721002	     -1.85387201	      2.88032240	      0.60647020	      1.02748544	      0.03076945	     11.05819028	      2.98786766	     -4.38676366	    -22.40148218	      5.68369367	     -0.00000200	      0.00000000	      5.89601230	     -5.15067448	     -1.58595185	    -68.71530943	     -6.02060991	      0.00000140	      0.00000000	    -14.02969029	      3.83646349	     -4.34649613
      2.11700000	      5.75314869	     -1.81694405	      2.38408582	      0.60565385	      1.03154975	      0.03380473	      8.75338853	      3.30487193	     -3.83836447	    -20.68006901	      5.91415817	     -0.00000180	      0.00000000	      8.11968721	     -5.33309055	     -2.12361014	    -70.12349198	     -3.96568755	      0.00000072	      0.00000000	    -14.26943249	      3.49515055	     -3.24817816
      2.13300000	      5.80408813	     -1.74970860	      1.97290802	      0.60459509	      1.03485756	      0.03641739	      6.76783394	      3.50616236	     -3.35600043	    -19.07443831	      6.15139496	     -0.00000155	      0.00000000	     10.46291075	     -5.21822877	     -2.24830542	    -70.69966250	     -2.32731305	      0.00000025	      0.00000000	    -14.40579317	      3.10763352	     -2.46810044
      2.15000000	      5.80702783	     -1.65790180	      1.51101591	      0.60354377	      1.03766867	      0.03868278	      4.84299751	      3.63369531	     -2.79654570	    -17.46872102	      6.37042260	     -0.00000147	      0.00000000	     12.63396663	     -4.98039954	     -2.34851809	    -70.41156813	     -1.18493322	      0.00000016	      0.00000000	    -14.34008935	      2.73461446	     -1.75161443
      2.16700000	      5.74264566	     -1.54438949	      0.88514337	      0.60163406	      1.03979821	      0.04096308	      3.13267538	      3.69763961	     -2.07673253	    -16.01670855	      6.54725744	     -0.00000117	      0.00000000	     14.70786619	     -4.74529918	     -2.63321711	    -69.37274874	     -0.38437042	      0.00000041	      0.00000000	    -14.37112921	      2.34640530	     -0.77149944
      2.18300000	      5.87750645	     -1.33846722	      0.46367568	      0.60018330	      1.04184517	      0.04258866	      1.23867161	      3.59916123	     -1.56536348	    -14.70317229	      6.80992145	     -0.00000101	      0.00000000	     16.28424900	     -4.32757106	     -2.74831918	    -67.46653420	      0.24603791	      0.00000027	      0.00000000	    -14.58475161	      1.90442816	     -0.23949901
      2.20000000	      5.65659942	     -1.37472164	     -0.01904266	      0.59784009	      1.04238449	      0.04430990	     -0.05342031	      3.73842635	     -1.03373807	    -13.69133103	      7.16934886	     -0.00000092	      0.00000000	     18.17179685	     -4.24250629	     -2.88796835	    -65.07048088	      0.80169721	      0.00000001	      0.00000000	    -14.49840648	      1.72774577	      0.36730677
      2.21700000	      5.76402203	     -1.27121609	     -0.44650723	      0.59643186	      1.04321597	      0.04574370	     -1.87453220	      3.69465467	     -0.52943386	    -12.45321353	      7.53405313	     -0.00000087	      0.00000000	     19.24293860	     -4.10152449	     -3.19093284	    -61.68222855	      1.17935375	     -0.00000044	      0.00000000	    -14.62765743	      1.36131371	      0.85937583
      2.23300000	      5.67945391	     -1.31405745	     -0.71046100	      0.59422594	      1.04303947	      0.04702188	     -3.36204553	      3.80129226	     -0.19175752	    -11.39437616	      7.96343087	     -0.00000085	      0.00000000	     20.34687613	     -4.18769035	     -3.46167956	    -57.64989304	      1.35540719	     -0.00000127	      0.00000000	    -14.69898820	      1.16222420	      1.20022285
      2.25000000	      5.57534060	     -1.60487987	     -0.84957280	      0.59253934	      1.04222257	      0.04817059	     -4.85478154	      4.17289710	      0.07565759	    -10.37600731	      8.41675700	     -0.00000088	      0.00000000	     21.15205677	     -4.60032780	     -3.77392854	    -52.95318458	      1.39726375	     -0.00000235	      0.00000000	    -14.65967508	      1.30607339	      1.48857792
      2.26700000	      5.66462385	     -1.79421502	     -1.11111397	      0.59080151	      1.04126516	      0.04897132	     -6.47113765	      4.38101067	      0.48718939	     -9.55130483	      8.99225460	     -0.00000085	      0.00000000	     21.36875269	     -5.00814875	     -4.59403389	    -47.51579725	      1.16369801	     -0.00000361	      0.00000000	    -14.87712373	      1.30277864	      1.83147451
      2.28300000	      5.48690113	     -2.20699986	     -1.39188022	      0.58889722	      1.03918605	      0.04989874	     -7.66481728	      4.82391021	      0.94273072	     -9.02071919	      9.68846258	     -0.00000091	      0.00000000	     21.64107395	     -5.66728338	     -5.61320191	    -41.65808520	      0.75573182	     -0.00000460	      0.00000000	    -14.76906701	      1.54539339	      1.91568861
      2.30000000	      5.52907237	     -2.65285249	     -1.45973511	      0.58768527	      1.03705656	      0.05041752	     -9.20427914	      5.29649082	      1.18379645	     -8.35856108	     10.30300620	     -0.00000091	      0.00000000	     21.41880135	     -6.18376267	     -6.57640717	    -35.40813177	      0.16251218	     -0.00000529	      0.00000000	    -14.96607243	      1.84451301	      2.07707131
      2.31700000	      5.46067720	     -3.04786860	     -2.20847937	      0.58716281	      1.03449876	      0.05080894	    -10.80387985	      5.50850438	      2.21166246	     -7.41554817	     10.82222774	     -0.00000100	      0.00000000	     20.91218406	     -6.68007840	     -8.18149178	    -28.89264397	     -0.42347353	     -0.00000545	      0.00000000	    -14.84482455	      2.06407450	      3.00315744
      2.33300000	      5.22861899	     -3.52784148	     -2.30250724	      0.58634776	      1.03098536	      0.05092057	    -12.00217259	      5.95862485	      2.59973273	     -6.94612529	     11.57625487	     -0.00000085	      0.00000000	     20.74772891	     -6.91011072	     -8.74894888	    -22.60718395	     -1.00749154	     -0.00000489	      0.00000000	    -14.57163800	      2.46603166	      3.08690827
      2.35000000	      5.20294594	     -4.04048983	     -2.60346327	      0.58571082	      1.02776592	      0.05098928	    -13.58562542	      6.34255388	      3.22869113	     -6.14854224	     12.06022189	     -0.00000076	      0.00000000	     20.16153963	     -7.09672838	     -8.99962199	    -16.39177150	     -1.42549239	     -0.00000394	      0.00000000	    -14.64050226	      2.84617861	      3.34484796
      2.36700000	      5.23328783	     -4.58522019	     -2.93651252	      0.58519914	      1.02441543	      0.05062593	    -15.21713868	      6.68810674	      3.99156571	     -5.41435977	     12.50436046	     -0.00000072	      0.00000000	     19.57405909	     -7.28459597	     -8.68833972	    -10.87919458	     -1.51556348	     -0.00000301	      0.00000000	    -14.84367701	      3.15806858	      3.40749809
      2.38300000	      5.19705450	     -4.92144707	     -3.30259874	      0.58519496	      1.02086827	      0.05012660	    -16.67079972	      6.78501823	      4.65780215	     -4.96626322	     13.06165731	     -0.00000066	      0.00000000	     19.01165656	     -7.31798349	     -7.99465488	     -6.12571155	     -1.37739537	     -0.00000208	      0.00000000	    -14.76010857	      3.35051255	      3.41781321
